<svg height="8000" viewBox="0 0 8000 8000" width="8000" xmlns="http://www.w3.org/2000/svg"><g fill="none" fill-rule="evenodd"><circle cx="4000" cy="2880" r="1837"/><path d="m4000 290c709.4108 0 1351.66215 287.55436 1816.56054 752.46812 464.89509 464.91047 752.43946 1107.17809 752.43946 1816.60776 0 550.28036-348.38648 1469.95125-793.85029 2358.5339-298.4013 595.23179-636.0142 1176.55281-922.99041 1615.77388-405.41862 620.49881-747.19025 876.61634-852.1593 876.61634s-446.74068-256.11753-852.1593-876.61634c-286.97621-439.22107-624.58911-1020.54209-922.99041-1615.77388-445.46381-888.58265-793.85029-1808.25354-793.85029-2358.5339 0-709.42967 287.54437-1351.69729 752.43946-1816.60776 464.89839-464.91376 1107.14974-752.46812 1816.56054-752.46812zm.5 1288c-359.3993 0-684.7743 145.67535-920.29948 381.20052-235.52517 235.52518-381.20052 560.90018-381.20052 920.29948s145.67535 684.7743 381.20052 920.29948c235.52518 235.52517 560.90018 381.20052 920.29948 381.20052s684.7743-145.67535 920.29948-381.20052c235.52517-235.52518 381.20052-560.90018 381.20052-920.29948s-145.67535-684.7743-381.20052-920.29948c-235.52518-235.52517-560.90018-381.20052-920.29948-381.20052z" fill="#ffd700" stroke="#000" stroke-linejoin="round" stroke-width="550"/></g></svg>